<svg version="1.1" xmlns="http://www.w3.org/2000/svg" xmlns:xlink="http://www.w3.org/1999/xlink" width="116.27072" height="198.78642" viewBox="0,0,116.27072,198.78642"><g transform="translate(-151.76196,-21.16357)"><g data-paper-data="{&quot;isPaintingLayer&quot;:true}" fill-rule="nonzero" stroke-linejoin="miter" stroke-miterlimit="10" stroke-dasharray="" stroke-dashoffset="0" style="mix-blend-mode: normal"><path d="M210.45562,56.9318l-48.68712,-8.54464l43.85263,-25.92024l58.21635,8.94794z" data-paper-data="{&quot;index&quot;:null}" fill="#3c67b9" stroke="#000000" stroke-width="2.5" stroke-linecap="round"/><path d="M259.4,32.3l-94.4,15.2" data-paper-data="{&quot;index&quot;:null}" fill="none" stroke="#000000" stroke-width="2.5" stroke-linecap="round"/><g data-paper-data="{&quot;index&quot;:null}"><path d="M236.85156,177.66997c0,0 12.15075,7.91079 16.23018,15.25616c4.07943,7.34537 4.94456,10.39551 0.50844,14.88322c-4.43612,4.48771 -12.9277,2.31797 -16.17259,0.96312c-10.92141,-4.56003 -23.09323,-11.57517 -23.09323,-11.57517l-3.95668,-7.25227z" fill="#ffffff" stroke="#000000" stroke-width="2.5" stroke-linecap="round"/><path d="M224.03205,192.97785l20.82557,-7.88619l3.92494,4.08633c0,0 -5.40599,3.65419 -10.9579,5.5895c-4.06539,1.41712 -11.31209,1.97694 -13.05593,2.7436z" fill="#dadada" stroke="none" stroke-width="0" stroke-linecap="butt"/></g><g data-paper-data="{&quot;index&quot;:null}"><path d="M201.56541,180.40769c0,0 12.43297,0.9192 19.00821,10.61117c0.97127,1.43167 6.22252,9.25446 6.78129,10.47499c3.22394,7.04218 -0.05823,13.47844 -1.88073,14.15558c-4.59473,1.70716 -18.38621,2.44775 -22.99506,0.19153c-2.95183,-1.44503 -8.19785,-3.41605 -12.61864,-6.12257c-5.5957,-3.42583 -10.20836,-7.56051 -10.92246,-8.10659c-2.7498,-2.10281 -3.73463,-16.79271 1.82826,-21.59913c5.56289,-4.80642 20.79912,0.39502 20.79912,0.39502z" fill="#ffffff" stroke="#000000" stroke-width="2.5" stroke-linecap="round"/><path d="M215.53386,200.29508c-9.99603,0.55564 -26.23043,-2.1968 -28.65249,-3.66267c-2.42206,-1.46587 -5.47669,-5.8765 -5.47669,-5.8765l3.57813,-5.59622c0,0 6.73653,5.68044 10.16085,7.72506c2.95643,1.76527 26.18809,1.79855 26.18809,1.79855l2.99132,4.43306c0,0 -4.19412,0.9233 -8.78921,1.17873z" fill="#dadada" stroke="none" stroke-width="0" stroke-linecap="butt"/><path d="M179.22501,200.60891c0,0 -0.95179,-2.04339 -1.49345,-4.46581c-0.37067,-1.65768 -0.41635,-3.62577 -0.36086,-4.71072c0.14456,-2.82638 2.07409,-7.84044 2.07409,-7.84044l7.66485,0.5c0,0 -1.87582,8.24227 -2.04297,12.0036c-0.14431,3.24739 7.28958,13.45187 7.28958,13.45187c0,0 -2.81407,-1.45547 -4.53127,-2.62437c-2.41638,-1.64484 -8.59997,-6.31413 -8.59997,-6.31413z" fill="#dadada" stroke="none" stroke-width="0" stroke-linecap="butt"/></g><path d="M176.57533,167.01358c0.11753,-3.53727 0.52677,-13.46732 2.11901,-22.98105c1.44088,-8.60936 3.36495,-16.87779 4.28392,-19.75928c3.08762,-9.68143 7.76301,-19.30655 7.76301,-19.30655l50.92678,3.93333c0,0 2.99791,12.76499 3.77062,20.96719c0.77271,8.2022 1.73831,25.84291 1.80961,31.2683c0.0713,5.42539 -1.02926,20.36452 -1.02926,20.36452c0,0 -4.14042,5.85093 -11.75546,8.99105c-6.47347,2.66939 -17.44692,3.31417 -22.47116,3.2234c-5.31641,-0.09604 -14.27988,-0.58769 -21.03966,-3.59955c-7.48239,-3.33381 -12.52007,-9.2149 -12.52007,-9.2149c0,0 -2.1002,-6.57774 -1.85735,-13.88645z" data-paper-data="{&quot;index&quot;:null}" fill="#6c9ffb" stroke="#000000" stroke-width="2.5" stroke-linecap="butt"/><path d="M187.9345,149.48473c-0.56319,7.19376 -0.78324,8.80396 -0.77724,16.21626c0.00812,10.01748 8.78729,24.85599 8.78729,24.85599c0,0 -3.58012,-0.81324 -5.85701,-2.30681c-1.08507,-0.71177 -4.07125,-1.9915 -6.4414,-3.9201c-2.3446,-1.90782 -4.07921,-3.96671 -4.07921,-3.96671c0,0 -1.02735,-2.73633 -1.39813,-5.70229c-0.31214,-2.49687 -0.26476,-5.2052 -0.38203,-6.09531c-0.62075,-4.71165 0.56766,-16.87075 2.71868,-28.62987c0.62603,-3.42237 0.83077,-6.64358 1.59172,-9.80473c0.44779,-1.86021 1.27512,-3.83434 1.79122,-5.56165c2.90622,-9.72666 7.01313,-17.33063 7.01313,-17.33063l3.76835,3.27112c0,0 -2.68355,10.11682 -4.46328,20.06827c-1.57548,8.80941 -2.16142,17.49266 -2.2721,18.90646z" data-paper-data="{&quot;index&quot;:null}" fill="#3c67b9" stroke="none" stroke-width="0" stroke-linecap="butt"/><path d="M187.37813,116.97626c2.49874,-3.15041 4.32669,-8.32316 8.30292,-10.58639c7.4446,-4.2374 3.63447,-8.32157 3.63447,-8.32157l1.90637,28.50136c0,0 -16.46232,-6.29191 -13.84376,-9.5934z" data-paper-data="{&quot;index&quot;:null}" fill="#3c67b9" stroke="none" stroke-width="0" stroke-linecap="butt"/><path d="M252.35003,84.55003c0,18.63961 -15.33425,33.75 -34.25,33.75c-18.91575,0 -34.25,-15.11039 -34.25,-33.75c0,-18.63961 15.33425,-33.75 34.25,-33.75c18.91575,0 34.25,15.11039 34.25,33.75z" data-paper-data="{&quot;index&quot;:null}" fill="#ffffff" stroke="#000000" stroke-width="2.5" stroke-linecap="butt"/><path d="M193.21112,88.07779c0,3.92161 0.766,8.91907 3.03347,13.14872c4.06593,7.5844 10.7443,13.68461 10.7443,13.68461c0,0 -3.15417,-0.72752 -6.58546,-2.76787c-3.27427,-1.94699 -6.77106,-5.12915 -9.23643,-8.39384c-4.61586,-6.11241 -6.84478,-14.218 -6.84478,-19.4494c0,-4.9189 2.04902,-11.03284 5.22421,-16.27657c1.93224,-3.19104 4.28582,-6.17094 6.95131,-8.25204c2.70826,-2.1145 5.71336,-3.30472 5.71336,-3.30472c0,0 -5.27687,8.46314 -7.94,17.61948c-1.41796,4.87523 -1.05999,10.18581 -1.05999,13.99163z" data-paper-data="{&quot;index&quot;:null}" fill="#dadada" stroke="none" stroke-width="0" stroke-linecap="butt"/><path d="M230.75404,52.7c0,0 -0.52497,-1.64604 -5.55239,-2.6086c-3.65473,-0.69974 -9.38637,0.05604 -12.75692,0.6086c-3.39043,0.55582 -8.1966,1.65458 -11.22793,3.4287c-4.12765,2.41577 -5.18946,3.3713 -5.18946,3.3713l-1.87733,-14.1c0,0 2.70644,-8.032 16.20124,-10.3c5.48002,-0.921 15.09418,4.59137 15.09418,4.59137z" data-paper-data="{&quot;index&quot;:null}" fill="#6c9ffb" stroke="#000000" stroke-width="2.5" stroke-linecap="round"/><path d="M158.05003,68.50003l4,10.2l-8.4,-0.4l4.2,-9.4l1.6,-19.8" data-paper-data="{&quot;index&quot;:null}" fill="#fd9218" stroke="#000000" stroke-width="2.5" stroke-linecap="round"/><path d="M205.5,23.1l2,10.2" data-paper-data="{&quot;index&quot;:null}" fill="none" stroke="#000000" stroke-width="2.5" stroke-linecap="round"/><path d="M236.41667,114.32723c0,0.00001 1.5,73.00611 1.5,73.00611c0,0 -3.58491,2.64981 -7.71242,4.02981c-4.23511,1.41598 -9.03267,1.56549 -10.4128,1.76169c-5.61719,0.79852 -15.87477,-0.62483 -15.87477,-0.62483l-2.83333,-77.83334c0,0 3.88879,1.87686 8.39144,2.91457c3.5832,0.82581 7.55515,0.87572 10.26535,0.78623c2.78661,-0.09201 7.40982,-0.78946 10.85906,-1.9735c3.50715,-1.20391 5.81749,-2.89396 5.81749,-2.89396c0,0 -0.00002,0.82721 -0.00002,0.82722z" data-paper-data="{&quot;index&quot;:null}" fill="#ffffff" stroke="#000000" stroke-width="2.5" stroke-linecap="round"/><path d="M229.92857,117.19048l-2.71429,8.28571l-10.85714,0.71429l-2.57143,-7.57143c0,0 5.07219,0.10992 7.72849,-0.12515c2.72299,-0.24097 8.41436,-1.30342 8.41436,-1.30342z" data-paper-data="{&quot;index&quot;:null}" fill="#6c9ffb" stroke="#000000" stroke-width="2.5" stroke-linecap="round"/><path d="M227.21429,125.61904l4.42857,44.71429l-8.14286,8.14286l-10,-8l3.28571,-44.28571z" data-paper-data="{&quot;index&quot;:null}" fill="#3c67b9" stroke="#000000" stroke-width="2.5" stroke-linecap="round"/><path d="M237.95833,113.91667l2.91667,-2.25l1.5,8.08333l-4.41667,2.08333z" data-paper-data="{&quot;index&quot;:null}" fill="#3c67b9" stroke="#3c67b9" stroke-width="0.5" stroke-linecap="round"/><g data-paper-data="{&quot;index&quot;:null}" fill="none" stroke="#ffffff" stroke-width="2.5" stroke-linecap="round"><path d="M215.84705,39.14116c0,0 2.01219,-0.09979 3.09197,0.00153c1.14221,0.10718 3.58451,0.62494 3.58451,0.62494"/><path d="M219.54607,40.33724l0.55,5.5"/><g><path d="M207.43038,47.10783l-0.55,-6.41667c0,0 0.5947,-0.32873 1.08153,-0.49912c0.67364,-0.23577 2.58514,-0.78421 2.58514,-0.78421"/><path d="M207.23822,44.10783c0,0 1.43598,-0.59049 2.16541,-0.81249c0.67129,-0.2043 2.05126,-0.47084 2.05126,-0.47084"/></g></g><path d="M177.8,219.95v-7.5h78v7.5z" data-paper-data="{&quot;index&quot;:null}" fill="none" stroke="none" stroke-width="0" stroke-linecap="butt"/><path d="M200.87916,38.11029l2.42206,13.50833c0,0 -1.85503,0.96255 -2.6253,1.25814c-1.06515,0.40875 -3.52568,1.79039 -3.52568,1.79039l-1.58357,-10.99216c0,0 0.34816,-0.90624 1.03563,-1.83941c0.63717,-0.86488 1.60728,-1.75288 1.84676,-1.96396c1.04545,-0.92148 2.43011,-1.76134 2.43011,-1.76134z" fill="#3c67b9" stroke="#3c67b9" stroke-width="0.5" stroke-linecap="round"/><path d="M222.03746,71.00002c0,4.97056 -3.28325,9 -7.33333,9c-4.05009,0 -7.33333,-4.02944 -7.33333,-9c0,-4.97056 3.28325,-9 7.33333,-9c4.05009,0 7.33333,4.02944 7.33333,9z" data-paper-data="{&quot;index&quot;:null}" fill="#ffffff" stroke="#000000" stroke-width="2.5" stroke-linecap="butt"/><path d="M242.08695,71.28232c0,4.60237 -2.68629,8.33333 -6,8.33333c-3.31371,0 -6,-3.73096 -6,-8.33333c0,-4.60237 2.68629,-8.33333 6,-8.33333c3.31371,0 6,3.73096 6,8.33333z" data-paper-data="{&quot;index&quot;:null}" fill="#ffffff" stroke="#000000" stroke-width="2.5" stroke-linecap="butt"/></g></g></svg>
