<svg id="svg" version="1.1" xmlns="http://www.w3.org/2000/svg" xmlns:xlink="http://www.w3.org/1999/xlink" width="1000" height="1000.07369196757554" viewBox="30, 60, 170,140.07369196757554"><g id="svgg"><path id="path0" d="M117.170 101.748 C 116.522 102.088,115.910 102.491,115.811 102.645 C 115.712 102.799,115.546 102.914,115.443 102.901 C 114.890 102.833,112.926 103.863,113.094 104.134 C 113.215 104.330,113.106 104.378,112.805 104.263 C 112.509 104.149,112.213 104.273,112.040 104.581 C 111.885 104.858,111.650 105.053,111.517 105.015 C 111.095 104.892,110.243 105.260,110.243 105.564 C 110.243 105.725,110.111 105.774,109.948 105.674 C 109.786 105.574,109.654 105.633,109.654 105.804 C 109.654 105.976,109.547 106.083,109.417 106.043 C 109.005 105.914,106.131 107.375,106.290 107.632 C 106.373 107.768,106.237 107.800,105.987 107.704 C 105.719 107.601,105.457 107.723,105.351 108.000 C 105.252 108.259,105.052 108.398,104.906 108.308 C 104.761 108.218,104.643 108.293,104.643 108.475 C 104.643 108.656,104.521 108.729,104.372 108.637 C 104.223 108.545,103.907 108.663,103.670 108.900 C 103.433 109.137,103.165 109.257,103.076 109.167 C 102.986 109.078,102.639 109.195,102.305 109.429 C 101.972 109.663,101.797 109.954,101.918 110.077 C 102.038 110.199,101.938 110.271,101.695 110.236 C 100.847 110.116,100.481 110.244,100.694 110.588 C 100.838 110.821,100.745 110.871,100.406 110.740 C 100.095 110.621,99.840 110.714,99.737 110.983 C 99.645 111.223,99.451 111.345,99.306 111.256 C 99.161 111.166,99.042 111.241,99.042 111.422 C 99.042 111.604,98.909 111.670,98.747 111.570 C 98.585 111.469,98.452 111.536,98.452 111.717 C 98.452 111.898,98.320 111.965,98.158 111.864 C 97.996 111.764,97.863 111.831,97.863 112.012 C 97.863 112.193,97.741 112.266,97.592 112.174 C 97.443 112.082,97.127 112.200,96.890 112.437 C 96.653 112.674,96.377 112.786,96.277 112.686 C 96.176 112.585,96.094 112.658,96.094 112.847 C 96.094 113.036,95.995 113.175,95.873 113.156 C 95.286 113.063,94.899 113.221,95.063 113.486 C 95.229 113.755,94.829 113.911,94.234 113.809 C 93.875 113.748,92.262 114.755,92.262 115.040 C 92.262 115.177,92.130 115.207,91.968 115.107 C 91.805 115.007,91.673 115.073,91.673 115.254 C 91.673 115.435,91.540 115.502,91.378 115.402 C 91.216 115.301,91.083 115.360,91.083 115.532 C 91.083 115.703,90.984 115.812,90.862 115.774 C 90.502 115.659,88.725 116.483,88.725 116.764 C 88.725 116.906,88.626 116.997,88.504 116.964 C 88.089 116.855,86.957 117.357,86.957 117.650 C 86.957 117.810,86.829 117.863,86.673 117.766 C 86.516 117.670,86.143 117.836,85.843 118.136 C 85.544 118.436,85.141 118.628,84.949 118.564 C 84.756 118.500,84.518 118.657,84.420 118.913 C 84.322 119.168,84.144 119.317,84.025 119.244 C 83.696 119.040,79.546 121.305,79.795 121.553 C 79.914 121.673,79.785 121.683,79.507 121.577 C 79.189 121.455,78.938 121.551,78.828 121.837 C 78.733 122.087,78.467 122.220,78.239 122.132 C 78.011 122.044,77.745 122.177,77.649 122.427 C 77.554 122.677,77.310 122.818,77.109 122.741 C 76.908 122.663,76.365 122.970,75.904 123.422 C 75.442 123.875,75.163 124.046,75.284 123.803 C 75.405 123.559,75.304 123.606,75.060 123.906 C 74.801 124.224,74.465 124.358,74.256 124.229 C 74.038 124.094,73.971 124.129,74.087 124.316 C 74.192 124.486,74.073 124.704,73.822 124.800 C 73.523 124.915,73.430 124.850,73.551 124.610 C 73.653 124.409,73.560 124.455,73.345 124.713 C 73.131 124.970,72.789 125.125,72.587 125.057 C 72.384 124.988,72.138 125.142,72.040 125.398 C 71.942 125.653,71.743 125.789,71.598 125.699 C 71.453 125.610,71.334 125.685,71.334 125.866 C 71.334 126.047,71.201 126.113,71.039 126.013 C 70.877 125.913,70.744 125.979,70.744 126.161 C 70.744 126.342,70.612 126.408,70.450 126.308 C 70.287 126.208,70.155 126.274,70.155 126.455 C 70.155 126.637,70.033 126.710,69.884 126.617 C 69.735 126.525,69.403 126.660,69.147 126.916 C 68.891 127.172,68.681 127.290,68.681 127.177 C 68.681 127.065,68.469 127.149,68.209 127.364 C 67.949 127.580,67.522 127.788,67.259 127.826 C 66.996 127.865,66.644 128.070,66.477 128.281 C 66.310 128.493,65.975 128.709,65.732 128.762 C 65.490 128.815,65.247 128.981,65.192 129.132 C 65.138 129.283,64.972 129.332,64.824 129.240 C 64.675 129.149,64.554 129.210,64.554 129.376 C 64.554 129.543,64.356 129.603,64.114 129.511 C 63.864 129.414,63.597 129.544,63.494 129.813 C 63.395 130.072,63.195 130.211,63.049 130.121 C 62.904 130.031,62.786 130.098,62.786 130.270 C 62.786 130.442,62.686 130.551,62.564 130.512 C 62.192 130.394,60.427 131.226,60.427 131.520 C 60.427 131.672,60.305 131.721,60.156 131.629 C 60.007 131.536,59.676 131.671,59.419 131.927 C 59.163 132.183,58.954 132.297,58.954 132.179 C 58.954 132.061,58.711 132.184,58.414 132.453 C 58.117 132.722,57.785 132.853,57.677 132.744 C 57.568 132.636,57.480 132.710,57.480 132.909 C 57.480 133.107,57.365 133.199,57.224 133.112 C 56.900 132.912,55.937 133.952,56.202 134.217 C 56.310 134.325,56.236 134.414,56.038 134.414 C 55.839 134.414,55.757 134.544,55.855 134.703 C 55.953 134.862,55.890 135.260,55.714 135.587 C 55.468 136.047,55.486 136.183,55.790 136.183 C 56.007 136.183,56.638 136.650,57.192 137.221 C 57.745 137.792,58.368 138.195,58.576 138.115 C 58.784 138.035,58.954 138.106,58.954 138.273 C 58.954 138.439,59.075 138.501,59.223 138.409 C 59.371 138.317,59.537 138.366,59.592 138.517 C 59.646 138.668,59.886 138.835,60.126 138.887 C 60.365 138.940,60.734 139.143,60.945 139.339 C 61.156 139.535,61.524 139.620,61.762 139.529 C 62.001 139.437,62.196 139.517,62.196 139.706 C 62.196 139.895,62.329 139.968,62.491 139.867 C 62.653 139.767,62.786 139.833,62.786 140.015 C 62.786 140.196,62.918 140.262,63.080 140.162 C 63.242 140.062,63.375 140.143,63.375 140.341 C 63.375 140.540,63.457 140.620,63.558 140.520 C 63.658 140.420,63.940 140.538,64.185 140.783 C 64.430 141.027,64.812 141.158,65.034 141.073 C 65.257 140.987,65.438 141.054,65.438 141.220 C 65.438 141.387,65.571 141.441,65.733 141.341 C 65.895 141.241,66.028 141.307,66.028 141.489 C 66.028 141.670,66.161 141.736,66.323 141.636 C 66.485 141.536,66.618 141.616,66.618 141.815 C 66.618 142.014,66.700 142.094,66.800 141.994 C 66.900 141.894,67.183 142.012,67.428 142.256 C 67.672 142.501,68.054 142.632,68.277 142.546 C 68.499 142.461,68.681 142.528,68.681 142.694 C 68.681 142.861,68.814 142.915,68.976 142.815 C 69.138 142.715,69.270 142.781,69.270 142.962 C 69.270 143.144,69.403 143.210,69.565 143.110 C 69.727 143.010,69.860 143.053,69.860 143.205 C 69.860 143.478,70.957 143.946,71.423 143.873 C 71.554 143.853,71.863 144.039,72.110 144.286 C 72.358 144.534,72.682 144.661,72.831 144.569 C 72.980 144.477,73.102 144.556,73.102 144.745 C 73.102 144.934,73.290 145.017,73.520 144.929 C 73.750 144.840,74.015 144.970,74.110 145.216 C 74.204 145.463,74.446 145.610,74.647 145.542 C 74.849 145.475,75.191 145.598,75.408 145.815 C 75.625 146.033,75.925 146.135,76.074 146.043 C 76.223 145.951,76.345 146.012,76.345 146.178 C 76.345 146.345,76.544 146.405,76.787 146.311 C 77.030 146.218,77.229 146.296,77.229 146.485 C 77.229 146.675,77.362 146.747,77.524 146.647 C 77.686 146.547,77.819 146.627,77.819 146.826 C 77.819 147.025,77.901 147.105,78.001 147.005 C 78.102 146.905,78.378 147.016,78.614 147.253 C 78.851 147.490,79.167 147.609,79.316 147.517 C 79.465 147.425,79.587 147.497,79.587 147.679 C 79.587 147.860,79.720 147.926,79.882 147.826 C 80.044 147.726,80.177 147.799,80.177 147.988 C 80.177 148.177,80.376 148.255,80.619 148.162 C 80.862 148.068,81.061 148.128,81.061 148.295 C 81.061 148.461,81.179 148.525,81.323 148.436 C 81.466 148.347,81.747 148.471,81.945 148.710 C 82.144 148.950,82.425 149.073,82.568 148.985 C 82.712 148.896,82.830 148.971,82.830 149.153 C 82.830 149.334,82.962 149.400,83.125 149.300 C 83.287 149.200,83.419 149.272,83.419 149.461 C 83.419 149.651,83.625 149.726,83.877 149.630 C 84.168 149.518,84.260 149.574,84.131 149.784 C 84.008 149.982,84.089 150.059,84.334 149.978 C 84.557 149.903,84.911 150.013,85.120 150.222 C 85.329 150.431,85.717 150.518,85.982 150.416 C 86.282 150.301,86.391 150.350,86.270 150.545 C 86.051 150.899,86.864 151.308,87.278 151.052 C 87.425 150.961,87.546 151.035,87.546 151.216 C 87.546 151.397,87.679 151.463,87.841 151.363 C 88.003 151.263,88.136 151.307,88.136 151.462 C 88.136 151.616,88.341 151.821,88.593 151.918 C 88.860 152.020,88.974 151.970,88.867 151.797 C 88.767 151.634,89.152 151.724,89.724 151.996 C 90.295 152.269,90.700 152.594,90.624 152.718 C 90.547 152.842,90.605 153.019,90.753 153.110 C 91.434 153.531,91.262 143.211,90.496 137.705 C 90.066 134.615,91.184 133.533,98.600 129.864 C 113.987 122.252,126.063 121.765,135.993 128.356 C 138.004 129.691,137.915 129.411,138.138 135.102 C 138.241 137.723,138.436 140.066,138.571 140.310 C 138.783 140.690,138.819 140.685,138.827 140.270 C 138.836 139.791,140.042 138.823,140.760 138.717 C 140.966 138.687,141.372 138.469,141.663 138.233 C 142.128 137.856,142.164 137.857,141.965 138.246 C 141.831 138.510,141.909 138.482,142.159 138.177 C 142.390 137.896,142.665 137.752,142.770 137.858 C 142.876 137.963,142.962 137.887,142.962 137.688 C 142.962 137.490,143.095 137.409,143.257 137.509 C 143.419 137.609,143.552 137.543,143.552 137.362 C 143.552 137.181,143.681 137.112,143.839 137.210 C 143.997 137.307,144.352 137.123,144.628 136.800 C 144.905 136.477,145.240 136.280,145.373 136.363 C 145.506 136.445,145.615 136.372,145.615 136.200 C 145.615 136.028,145.715 135.914,145.836 135.946 C 146.251 136.056,147.384 135.554,147.384 135.261 C 147.384 135.100,147.518 135.051,147.681 135.152 C 147.844 135.253,148.057 135.129,148.154 134.877 C 148.251 134.624,148.449 134.491,148.594 134.581 C 148.739 134.670,148.858 134.581,148.858 134.382 C 148.858 134.184,148.941 134.104,149.043 134.206 C 149.304 134.468,150.921 133.584,150.921 133.178 C 150.921 132.993,151.004 132.925,151.105 133.026 C 151.346 133.266,153.574 132.128,153.574 131.764 C 153.574 131.611,153.778 131.563,154.028 131.659 C 154.317 131.770,154.451 131.686,154.397 131.429 C 154.345 131.184,154.516 131.059,154.831 131.112 C 155.117 131.160,155.429 130.995,155.525 130.745 C 155.621 130.495,155.818 130.364,155.963 130.454 C 156.108 130.544,156.227 130.469,156.227 130.287 C 156.227 130.106,156.352 130.035,156.504 130.129 C 156.657 130.223,157.074 129.999,157.432 129.631 C 157.790 129.262,157.987 129.160,157.870 129.403 C 157.681 129.796,157.701 129.796,158.048 129.403 C 158.264 129.160,158.638 128.918,158.881 128.865 C 159.124 128.812,159.367 128.646,159.421 128.495 C 159.475 128.344,159.636 128.292,159.779 128.380 C 159.921 128.468,160.285 128.303,160.589 128.014 C 160.892 127.724,161.328 127.444,161.557 127.391 C 161.787 127.339,162.019 127.172,162.074 127.021 C 162.128 126.870,162.279 126.812,162.409 126.892 C 162.846 127.163,163.402 126.135,163.451 124.964 C 163.478 124.325,163.382 123.803,163.236 123.803 C 163.091 123.803,163.045 123.685,163.133 123.541 C 163.334 123.217,162.583 122.556,162.316 122.823 C 162.210 122.929,162.122 122.862,162.122 122.673 C 162.122 122.483,162.023 122.355,161.901 122.387 C 161.474 122.500,160.347 121.989,160.495 121.749 C 160.578 121.615,160.440 121.427,160.189 121.331 C 159.931 121.232,159.811 121.281,159.912 121.444 C 160.012 121.607,159.892 121.657,159.634 121.557 C 159.383 121.461,159.243 121.278,159.322 121.150 C 159.504 120.855,158.624 120.501,158.264 120.724 C 158.116 120.815,157.996 120.741,157.996 120.560 C 157.996 120.379,157.863 120.312,157.701 120.413 C 157.539 120.513,157.406 120.447,157.406 120.265 C 157.406 120.084,157.273 120.018,157.111 120.118 C 156.949 120.218,156.817 120.152,156.817 119.971 C 156.817 119.789,156.684 119.723,156.522 119.823 C 156.360 119.923,156.227 119.857,156.227 119.676 C 156.227 119.494,156.094 119.428,155.932 119.528 C 155.770 119.629,155.637 119.562,155.637 119.381 C 155.637 119.200,155.505 119.133,155.343 119.234 C 155.181 119.334,155.048 119.267,155.048 119.086 C 155.048 118.905,154.915 118.839,154.753 118.939 C 154.591 119.039,154.458 118.973,154.458 118.791 C 154.458 118.610,154.326 118.544,154.164 118.644 C 154.001 118.744,153.869 118.678,153.869 118.497 C 153.869 118.315,153.736 118.249,153.574 118.349 C 153.412 118.449,153.279 118.383,153.279 118.202 C 153.279 118.021,153.147 117.954,152.985 118.055 C 152.822 118.155,152.690 118.088,152.690 117.907 C 152.690 117.726,152.557 117.660,152.395 117.760 C 152.233 117.860,152.100 117.794,152.100 117.612 C 152.100 117.431,151.968 117.365,151.805 117.465 C 151.643 117.565,151.511 117.499,151.511 117.318 C 151.511 117.136,151.378 117.070,151.216 117.170 C 151.054 117.270,150.921 117.204,150.921 117.023 C 150.921 116.842,150.789 116.775,150.626 116.875 C 150.464 116.976,150.332 116.909,150.332 116.728 C 150.332 116.547,150.199 116.480,150.037 116.581 C 149.875 116.681,149.742 116.615,149.742 116.433 C 149.742 116.252,149.624 116.176,149.481 116.265 C 149.337 116.354,149.050 116.223,148.844 115.974 C 148.637 115.726,148.291 115.590,148.074 115.674 C 147.856 115.757,147.679 115.689,147.679 115.522 C 147.679 115.356,147.557 115.295,147.408 115.387 C 147.259 115.479,146.927 115.345,146.671 115.089 C 146.415 114.832,146.205 114.724,146.205 114.847 C 146.205 114.971,146.026 114.828,145.807 114.529 C 145.589 114.230,145.257 114.080,145.071 114.195 C 144.884 114.310,144.731 114.256,144.731 114.075 C 144.731 113.894,144.598 113.828,144.436 113.928 C 144.274 114.028,144.141 113.962,144.141 113.780 C 144.141 113.599,144.009 113.533,143.847 113.633 C 143.685 113.733,143.552 113.667,143.552 113.486 C 143.552 113.304,143.419 113.238,143.257 113.338 C 143.095 113.438,142.962 113.372,142.962 113.191 C 142.962 113.010,142.830 112.943,142.668 113.043 C 142.506 113.144,142.373 113.063,142.373 112.864 C 142.373 112.666,142.291 112.585,142.190 112.686 C 142.090 112.786,141.814 112.674,141.577 112.437 C 141.340 112.200,141.024 112.082,140.875 112.174 C 140.726 112.266,140.604 112.193,140.604 112.012 C 140.604 111.831,140.483 111.757,140.335 111.849 C 140.186 111.940,140.020 111.881,139.965 111.716 C 139.910 111.551,139.535 111.353,139.130 111.275 C 138.726 111.197,138.351 110.999,138.296 110.834 C 138.241 110.669,138.074 110.609,137.926 110.701 C 137.778 110.793,137.657 110.719,137.657 110.538 C 137.657 110.357,137.524 110.290,137.362 110.391 C 137.200 110.491,137.067 110.446,137.067 110.292 C 137.067 110.138,136.861 109.932,136.610 109.836 C 136.301 109.718,136.221 109.780,136.362 110.025 C 136.478 110.226,136.229 110.078,135.810 109.696 C 135.391 109.315,134.919 109.082,134.762 109.179 C 134.604 109.276,134.395 109.144,134.295 108.884 C 134.192 108.616,133.925 108.486,133.675 108.582 C 133.433 108.675,133.235 108.615,133.235 108.448 C 133.235 108.281,133.102 108.227,132.940 108.327 C 132.778 108.427,132.646 108.369,132.646 108.197 C 132.646 108.026,132.380 107.885,132.056 107.885 C 131.732 107.885,131.466 107.745,131.466 107.573 C 131.466 107.401,131.334 107.343,131.172 107.443 C 131.010 107.543,130.877 107.477,130.877 107.296 C 130.877 107.114,130.744 107.048,130.582 107.148 C 130.420 107.248,130.287 107.182,130.287 107.001 C 130.287 106.819,130.166 106.746,130.018 106.838 C 129.870 106.929,129.704 106.881,129.649 106.730 C 129.595 106.579,129.352 106.412,129.108 106.360 C 128.865 106.307,128.599 106.175,128.516 106.066 C 128.433 105.958,128.171 105.825,127.933 105.772 C 127.696 105.718,127.328 105.514,127.117 105.318 C 126.906 105.123,126.516 105.046,126.251 105.147 C 125.986 105.249,125.843 105.210,125.934 105.061 C 126.024 104.912,125.516 104.506,124.805 104.159 C 124.094 103.811,123.585 103.644,123.673 103.787 C 123.761 103.930,123.628 103.968,123.377 103.871 C 123.127 103.775,123.009 103.555,123.116 103.383 C 123.237 103.187,123.128 103.138,122.827 103.254 C 122.532 103.367,122.235 103.244,122.064 102.938 C 121.910 102.662,121.691 102.529,121.579 102.641 C 121.466 102.754,121.180 102.652,120.943 102.415 C 120.706 102.178,120.391 102.060,120.242 102.152 C 120.092 102.244,119.971 102.171,119.971 101.990 C 119.971 101.808,119.849 101.735,119.700 101.828 C 119.550 101.920,119.228 101.795,118.984 101.550 C 118.448 101.014,118.606 100.997,117.170 101.748 M139.205 151.069 C 139.208 151.717,139.268 151.948,139.339 151.581 C 139.409 151.214,139.407 150.684,139.333 150.402 C 139.259 150.120,139.201 150.420,139.205 151.069 M90.968 153.900 C 90.665 154.865,90.552 156.523,90.780 156.664 C 91.060 156.837,91.533 153.925,91.268 153.660 C 91.174 153.566,91.039 153.674,90.968 153.900 M119.381 155.186 C 109.217 156.304,104.038 157.636,97.402 160.837 C 93.069 162.927,91.175 165.162,92.492 166.630 C 92.929 167.118,92.927 167.144,92.467 166.967 C 91.917 166.756,91.892 166.662,91.906 164.849 C 91.911 164.160,91.798 163.596,91.654 163.596 C 91.506 163.596,91.470 162.150,91.570 160.280 C 91.717 157.553,91.680 157.028,91.362 157.327 C 91.083 157.589,90.999 158.489,91.057 160.569 C 91.102 162.153,91.146 164.079,91.155 164.849 C 91.164 165.619,91.284 166.249,91.422 166.249 C 91.560 166.249,91.673 166.434,91.673 166.659 C 91.673 167.013,92.625 167.469,93.589 167.577 C 93.751 167.596,94.215 167.725,94.620 167.866 C 95.026 168.007,95.822 168.093,96.389 168.057 C 97.111 168.013,97.298 168.076,97.011 168.270 C 96.743 168.450,97.304 168.510,98.632 168.441 C 99.937 168.373,100.347 168.415,99.779 168.559 C 99.273 168.686,100.869 168.776,103.508 168.768 C 106.045 168.761,107.968 168.650,107.782 168.522 C 107.595 168.393,108.326 168.327,109.405 168.374 C 110.485 168.421,111.306 168.361,111.231 168.240 C 111.156 168.119,111.599 168.012,112.216 168.001 C 114.426 167.962,115.196 167.867,115.061 167.649 C 114.942 167.457,116.029 167.321,117.671 167.324 C 117.947 167.324,118.105 167.215,118.022 167.082 C 117.940 166.948,118.311 166.818,118.848 166.792 C 119.384 166.767,120.221 166.694,120.707 166.630 C 121.194 166.566,121.878 166.487,122.227 166.455 C 122.576 166.423,122.788 166.276,122.697 166.129 C 122.606 165.982,122.817 165.936,123.167 166.028 C 123.516 166.119,123.882 166.064,123.979 165.907 C 124.077 165.749,124.334 165.687,124.550 165.770 C 124.767 165.853,124.987 165.790,125.040 165.630 C 125.094 165.470,125.467 165.296,125.870 165.242 C 126.273 165.189,127.106 164.925,127.721 164.656 C 128.336 164.387,128.987 164.258,129.167 164.369 C 129.365 164.492,129.411 164.437,129.284 164.231 C 129.101 163.936,129.454 163.835,130.445 163.901 C 130.532 163.907,130.815 163.701,131.073 163.442 C 131.331 163.184,131.724 163.043,131.947 163.128 C 132.169 163.213,132.351 163.140,132.351 162.966 C 132.351 162.791,132.557 162.728,132.808 162.824 C 133.107 162.939,133.193 162.882,133.055 162.658 C 132.914 162.430,133.007 162.379,133.334 162.505 C 133.604 162.609,133.825 162.585,133.825 162.453 C 133.825 162.178,136.201 161.052,136.545 161.164 C 136.670 161.205,136.772 161.098,136.772 160.926 C 136.772 160.754,136.905 160.696,137.067 160.796 C 137.229 160.896,137.362 160.853,137.362 160.700 C 137.362 160.547,137.710 160.194,138.135 159.915 C 138.561 159.636,138.805 159.575,138.679 159.779 C 138.540 160.004,138.569 160.076,138.755 159.962 C 139.932 159.234,139.007 157.666,136.705 156.489 C 133.845 155.026,126.113 154.445,119.381 155.186 M139.494 156.227 C 139.494 156.794,139.554 157.027,139.628 156.743 C 139.703 156.459,139.703 155.995,139.628 155.711 C 139.554 155.427,139.494 155.660,139.494 156.227 " stroke="none" fill="#3d67bf" fill-rule="evenodd"></path><path id="path1" d="M119.392 130.831 L 116.602 131.319 116.359 132.498 C 116.225 133.147,116.153 134.340,116.200 135.151 L 116.286 136.625 118.522 136.528 L 120.759 136.430 120.955 144.472 C 121.062 148.895,121.250 152.611,121.371 152.730 C 121.492 152.848,122.852 152.789,124.392 152.597 L 127.192 152.248 127.271 144.614 L 127.350 136.981 130.179 137.150 L 133.009 137.319 132.886 134.520 C 132.743 131.248,132.866 131.382,129.418 130.749 C 126.279 130.173,123.006 130.200,119.392 130.831 M107.738 132.319 C 103.525 133.549,98.757 136.228,98.321 137.610 C 98.188 138.033,98.404 141.857,99.235 153.780 C 99.464 157.074,99.514 157.103,102.409 155.649 C 105.811 153.940,105.626 154.259,105.455 150.380 L 105.307 147.026 107.775 145.842 L 110.243 144.658 110.243 142.327 C 110.243 139.428,110.035 139.306,107.214 140.559 C 104.808 141.629,104.859 141.640,105.106 140.093 C 105.317 138.775,106.761 137.891,110.317 136.906 L 112.012 136.436 112.012 134.098 L 112.012 131.761 110.759 131.782 C 110.070 131.794,108.710 132.035,107.738 132.319 M90.582 154.458 C 90.582 155.350,90.637 155.715,90.705 155.269 C 90.772 154.823,90.772 154.094,90.705 153.648 C 90.637 153.202,90.582 153.567,90.582 154.458 M90.869 158.290 C 90.869 159.020,90.926 159.318,90.997 158.954 C 91.067 158.589,91.067 157.992,90.997 157.627 C 90.926 157.262,90.869 157.561,90.869 158.290 " stroke="none" fill="#f3f4f6" fill-rule="evenodd"></path><path id="path2" d="M55.301 136.649 C 55.202 136.905,55.122 138.115,55.122 139.337 C 55.122 141.403,55.057 141.631,54.203 142.604 C 53.229 143.714,53.138 146.321,53.963 149.489 C 54.117 150.080,54.165 150.766,54.070 151.014 C 53.385 152.799,55.512 153.158,57.065 151.520 C 58.134 150.392,58.188 150.371,58.580 150.930 C 59.538 152.297,61.703 151.247,62.081 149.232 C 62.688 145.998,60.974 142.660,58.260 141.788 L 57.123 141.423 57.328 139.513 C 57.581 137.146,55.979 134.882,55.301 136.649 M91.109 156.360 C 91.092 157.115,91.184 157.423,91.370 157.237 C 91.548 157.059,91.558 156.615,91.396 156.073 C 91.137 155.206,91.134 155.209,91.109 156.360 M91.378 162.515 C 91.378 163.110,91.507 163.596,91.665 163.596 C 91.831 163.596,91.875 163.189,91.770 162.638 C 91.515 161.295,91.378 161.252,91.378 162.515 " stroke="none" fill="#fc941a" fill-rule="evenodd"></path><path id="path3" d="M116.728 123.830 C 110.553 124.445,97.434 129.598,92.417 133.380 C 90.306 134.970,90.161 135.297,90.496 137.705 C 90.713 139.263,91.312 150.511,91.311 152.985 C 91.310 153.390,91.455 156.109,91.632 159.027 C 91.809 161.945,91.962 164.731,91.973 165.217 C 91.993 166.089,91.999 166.085,92.398 164.968 C 93.015 163.236,93.853 162.549,97.482 160.798 C 110.908 154.318,133.140 152.717,138.647 157.834 C 139.111 158.265,139.529 158.577,139.576 158.528 C 139.696 158.402,139.179 148.843,138.822 144.584 C 138.658 142.638,138.397 138.725,138.241 135.888 C 137.883 129.377,137.971 129.669,135.985 128.351 C 130.841 124.937,123.328 123.173,116.728 123.830 M129.418 130.749 C 132.866 131.382,132.743 131.248,132.886 134.520 L 133.009 137.319 130.179 137.150 L 127.350 136.981 127.271 144.614 L 127.192 152.248 124.392 152.597 C 122.852 152.789,121.492 152.848,121.371 152.730 C 121.250 152.611,121.062 148.895,120.955 144.472 L 120.759 136.430 118.522 136.528 L 116.286 136.625 116.200 135.151 C 116.153 134.340,116.225 133.147,116.359 132.498 L 116.602 131.319 119.392 130.831 C 123.006 130.200,126.279 130.173,129.418 130.749 M112.012 134.098 L 112.012 136.436 110.317 136.906 C 106.761 137.891,105.317 138.775,105.106 140.093 C 104.859 141.640,104.808 141.629,107.214 140.559 C 110.035 139.306,110.243 139.428,110.243 142.327 L 110.243 144.658 107.775 145.842 L 105.307 147.026 105.455 150.380 C 105.626 154.259,105.811 153.940,102.409 155.649 C 99.514 157.103,99.464 157.074,99.235 153.780 C 98.404 141.857,98.188 138.033,98.321 137.610 C 98.932 135.672,107.102 131.844,110.759 131.782 L 112.012 131.761 112.012 134.098 M88.725 151.655 C 88.725 151.857,90.530 152.752,90.665 152.617 C 90.729 152.553,90.319 152.280,89.753 152.010 C 89.188 151.741,88.725 151.581,88.725 151.655 M137.951 160.059 C 137.546 160.376,137.360 160.638,137.537 160.642 C 137.715 160.646,138.100 160.383,138.394 160.059 C 139.066 159.316,138.901 159.316,137.951 160.059 M135.004 161.680 C 134.274 162.071,133.782 162.396,133.910 162.404 C 134.223 162.422,136.478 161.263,136.478 161.085 C 136.478 160.889,136.490 160.884,135.004 161.680 M129.477 163.926 C 128.950 164.078,128.519 164.268,128.519 164.347 C 128.519 164.561,130.094 164.151,130.420 163.853 C 130.741 163.559,130.752 163.558,129.477 163.926 M122.181 166.249 C 121.810 166.409,121.755 166.502,122.034 166.502 C 122.277 166.502,122.741 166.388,123.066 166.249 C 123.437 166.089,123.492 165.996,123.213 165.996 C 122.970 165.996,122.506 166.110,122.181 166.249 M118.689 166.853 C 117.903 166.985,117.184 167.169,117.091 167.262 C 116.866 167.487,119.662 167.109,120.413 166.813 C 121.145 166.525,120.564 166.538,118.689 166.853 M114.370 167.737 C 113.873 167.906,114.113 167.932,115.107 167.818 C 115.917 167.724,116.636 167.598,116.704 167.538 C 116.936 167.331,115.106 167.487,114.370 167.737 M95.873 168.221 C 96.157 168.295,96.621 168.295,96.905 168.221 C 97.189 168.147,96.957 168.086,96.389 168.086 C 95.822 168.086,95.590 168.147,95.873 168.221 M109.359 168.312 L 107.443 168.505 109.211 168.521 C 110.184 168.530,111.378 168.436,111.864 168.312 C 112.985 168.027,112.191 168.027,109.359 168.312 M98.231 168.524 C 98.677 168.591,99.407 168.591,99.853 168.524 C 100.298 168.456,99.934 168.401,99.042 168.401 C 98.150 168.401,97.786 168.456,98.231 168.524 M102.957 168.824 C 103.732 168.885,104.925 168.884,105.609 168.823 C 106.294 168.761,105.660 168.711,104.200 168.712 C 102.741 168.713,102.182 168.763,102.957 168.824 " stroke="none" fill="#6b9bf9" fill-rule="evenodd"></path></g></svg>