<svg version="1.1" viewBox="0.0 0.0 100.0 100.0" fill="none" stroke="none" stroke-linecap="square" stroke-miterlimit="10" xmlns:xlink="http://www.w3.org/1999/xlink" xmlns="http://www.w3.org/2000/svg"><clipPath id="p.0"><path d="m0 0l100.0 0l0 100.0l-100.0 0l0 -100.0z" clip-rule="nonzero"/></clipPath><g clip-path="url(#p.0)"><path fill="#000000" fill-opacity="0.0" d="m0 0l100.0 0l0 100.0l-100.0 0z" fill-rule="evenodd"/><path fill="#424242" d="m31.998688 87.27559l0 0c21.412994 0 38.771652 -16.68885 38.771652 -37.27559c0 -20.58674 -17.358658 -37.27559 -38.771652 -37.27559l0 37.27559z" fill-rule="evenodd"/><path stroke="#2e2e2e" stroke-width="1.0" stroke-linejoin="round" stroke-linecap="butt" d="m31.998688 87.27559l0 0c21.412994 0 38.771652 -16.68885 38.771652 -37.27559c0 -20.58674 -17.358658 -37.27559 -38.771652 -37.27559l0 37.27559z" fill-rule="evenodd"/><path fill="#ffffff" d="m43.09092 61.559055l14.708664 -11.559055l-14.708664 -11.559055z" fill-rule="evenodd"/></g></svg>