<svg xmlns="http://www.w3.org/2000/svg" width="500" height="500" viewBox="400 300 500 500" version="1.1"><path d="M 698.994 313.428 C 693.698 314.886, 690 316.730, 690 317.914 C 690 318.378, 688.710 319.292, 687.133 319.945 C 685.555 320.598, 682.293 323.119, 679.883 325.546 C 677.472 327.974, 674.963 329.969, 674.307 329.980 C 673.650 329.991, 672.525 330.799, 671.807 331.777 C 662.999 343.752, 652.380 341.696, 633.302 324.323 C 617.564 309.991, 607.130 310.403, 597.624 325.730 C 596.181 328.057, 595 330.845, 595 331.927 C 595 333.009, 593.875 336.010, 592.500 338.596 C 591.125 341.182, 590 344.061, 590 344.994 C 590 345.927, 589.140 347.468, 588.090 348.419 C 587.039 349.369, 585.906 351.239, 585.571 352.574 C 585.236 353.908, 584.517 355, 583.974 355 C 583.431 355, 582.009 356.125, 580.813 357.500 C 578.455 360.212, 562.735 361.335, 560.361 358.961 C 559.496 358.096, 550.971 355.962, 537.899 353.339 C 525.010 350.752, 519.519 360.722, 519.508 386.728 C 519.500 406.956, 519.500 406.956, 516 410.351 C 512.314 413.926, 505.492 416.204, 486.737 420.122 C 483.568 420.784, 480.475 421.927, 479.865 422.663 C 479.255 423.398, 477.942 424, 476.949 424 C 464.550 424, 463.899 448.343, 475.890 463.588 C 477.051 465.063, 478 466.823, 478 467.500 C 478 468.177, 478.890 469.861, 479.977 471.244 C 483.560 475.799, 483.747 483.951, 480.363 488.019 C 476.526 492.631, 466.707 502, 465.710 502 C 464.525 502, 454 512.491, 454 513.673 C 454 514.232, 453.109 515.497, 452.020 516.482 C 445.505 522.378, 450.256 536.476, 461.220 543.782 C 463.463 545.277, 465.980 546.950, 466.812 547.500 C 482.164 557.649, 487.173 567.299, 482.121 576.993 C 480.954 579.231, 480 581.614, 480 582.289 C 480 582.964, 478.875 585.629, 477.500 588.212 C 476.125 590.795, 475 593.397, 475 593.995 C 475 594.592, 473.988 596.450, 472.750 598.124 C 464.059 609.880, 476.203 629, 492.361 629 C 494.398 629, 497.737 629.716, 499.782 630.592 C 501.827 631.467, 506.467 632.571, 510.094 633.045 C 523.331 634.774, 524.039 636.766, 525.073 675.244 C 525.307 683.955, 527.941 688.947, 534.417 692.948 C 539.017 695.791, 550.049 694.936, 555.473 691.317 C 556.557 690.592, 558.863 690, 560.597 690 C 562.330 690, 565.493 689.392, 567.624 688.648 C 577.805 685.096, 591 687.100, 591 692.198 C 591 692.810, 592.040 694.704, 593.311 696.406 C 594.583 698.108, 596.232 701.075, 596.976 703 C 597.720 704.925, 598.925 707.204, 599.652 708.065 C 600.380 708.926, 601.505 711.151, 602.154 713.011 C 606.781 726.286, 622.386 735.756, 628.500 729 C 629.495 727.900, 630.815 727, 631.432 727 C 632.624 727, 635.368 724.739, 646.325 714.733 C 656.544 705.401, 662.989 702.703, 668.364 705.506 C 669.940 706.328, 671.782 707, 672.459 707 C 673.135 707, 674.996 708.124, 676.594 709.499 C 678.193 710.873, 679.912 711.998, 680.416 711.999 C 680.920 711.999, 682.045 712.673, 682.916 713.495 C 686.191 716.585, 690.823 720, 691.739 720 C 692.262 720, 693.547 720.958, 694.595 722.130 C 704.300 732.980, 718.778 731.714, 724.691 719.500 C 725.489 717.850, 726.989 714.925, 728.023 713 C 729.058 711.075, 729.926 708.723, 729.952 707.774 C 729.978 706.825, 730.898 704.575, 731.996 702.774 C 733.094 700.973, 733.994 698.864, 733.996 698.088 C 734.015 690.854, 746.147 681.996, 753.416 683.906 C 755.662 684.497, 761.325 685.622, 766 686.407 C 770.675 687.192, 775.767 688.322, 777.315 688.917 C 796.167 696.168, 804.113 685.571, 804.122 653.166 C 804.127 633.526, 803.830 634.810, 809.450 630.190 C 811.319 628.654, 815.022 627.400, 820.250 626.532 C 822.313 626.189, 824 625.539, 824 625.086 C 824 624.259, 826.588 623.662, 837.236 622.033 C 840.391 621.551, 844.286 620.221, 845.891 619.078 C 847.496 617.935, 849.226 617, 849.737 617 C 855.212 617, 858.342 604.982, 854.883 597.239 C 850.314 587.011, 845.637 577.429, 844.516 576 C 834.729 563.525, 837.571 557.395, 863.924 534.138 C 867.266 531.188, 870 528.221, 870 527.543 C 870 526.865, 870.900 525.495, 872 524.500 C 877.715 519.328, 869.455 499.109, 861.575 498.983 C 860.984 498.973, 859.440 497.848, 858.145 496.483 C 856.850 495.117, 855.391 494, 854.903 494 C 854.008 494, 851.776 492.260, 844.877 486.184 C 838.196 480.300, 837.306 469.572, 842.574 458.434 C 843.909 455.614, 845 452.810, 845 452.203 C 845 451.596, 845.563 450.740, 846.252 450.300 C 849.518 448.213, 854.277 435.333, 853.557 430.530 C 852.682 424.697, 846.471 418, 841.936 418 C 840.250 418, 836.762 417.138, 834.185 416.084 C 831.608 415.030, 826.800 413.903, 823.500 413.579 C 815.571 412.801, 815.035 412.674, 811.300 410.695 C 809.539 409.763, 807.480 409, 806.724 409 C 805.115 409, 801.644 405.372, 800.505 402.500 C 800.069 401.400, 799.392 392.938, 799.001 383.695 C 798.563 373.327, 797.852 366.452, 797.145 365.745 C 796.515 365.115, 796 363.620, 796 362.422 C 796 352.484, 782.515 345.833, 771.606 350.391 C 769.879 351.113, 766.224 352.030, 763.483 352.429 C 760.743 352.829, 757.391 353.870, 756.035 354.742 C 751.831 357.447, 739.916 357.686, 737.595 355.112 C 736.547 353.950, 735.071 353, 734.314 353 C 733.557 353, 732.637 352.212, 732.269 351.250 C 731.902 350.288, 730.813 348.652, 729.850 347.615 C 728.887 346.578, 727.821 344.462, 727.481 342.912 C 727.140 341.362, 726.055 339.060, 725.068 337.797 C 724.082 336.534, 722.937 334.375, 722.525 333 C 721.555 329.769, 715.159 320, 714.014 320 C 713.530 320, 712.847 319.092, 712.495 317.983 C 711.973 316.340, 709.401 314.649, 704 312.397 C 703.725 312.282, 701.472 312.746, 698.994 313.428 M 695.512 317.213 C 694.419 317.847, 693.069 318.729, 692.512 319.174 C 691.955 319.618, 687.675 323.021, 683 326.735 C 678.325 330.450, 674.275 333.756, 674 334.083 C 663.497 346.563, 645.925 342.745, 629.500 324.414 C 617.706 311.252, 601.017 316.870, 596.570 335.500 C 590.895 359.275, 576.673 367.348, 553.664 359.854 C 527.643 351.379, 519.211 360.061, 522.931 391.500 C 525.068 409.567, 517.663 417.428, 495.078 421.065 C 465.923 425.760, 463.096 435.145, 480.997 467.802 C 489.142 482.661, 486.667 488.433, 464.207 506.955 C 445.246 522.591, 447.777 531.340, 477.715 553.650 C 490.389 563.095, 490.251 567.933, 476.462 597.500 C 473.326 604.225, 472.664 607.165, 472.894 613.340 C 473.097 618.767, 483.636 624.895, 496.452 627.037 C 525.175 631.839, 526.392 633.174, 527.387 661 C 528.505 692.254, 530.983 694.717, 555.237 688.689 C 589.546 680.161, 588.650 679.710, 605.824 714.125 C 614.702 731.915, 623.403 731.886, 642.943 714 C 661.957 696.595, 665.833 696.957, 694.311 718.792 C 710.098 730.897, 717.658 729.221, 724.960 712 C 733.853 691.029, 734.595 689.611, 738.907 685.360 C 742.095 682.217, 744.191 680.973, 746.415 680.903 C 752.846 680.701, 757.650 681.176, 762.026 682.446 C 794.859 691.974, 799.821 688.741, 800.315 657.500 C 800.735 631.023, 801.528 629.458, 817.272 624.045 C 821.797 622.489, 827.975 620.890, 831 620.491 C 854.334 617.415, 858.031 609.046, 846.341 585.765 C 832.969 559.132, 832.987 559.399, 843.857 548.566 C 847.301 545.133, 853.880 539.214, 858.476 535.412 C 876.481 520.520, 875.701 511.459, 855.236 497.728 C 832.359 482.379, 830.915 476.413, 843.733 450.224 C 854.244 428.747, 851.990 422.368, 832.500 418.445 C 796.795 411.259, 796.149 410.568, 795.049 378.457 C 794.129 351.590, 787.810 346.909, 763.993 355.449 C 741.065 363.669, 732.922 360.268, 721.572 337.731 C 711.406 317.544, 704.424 312.047, 695.512 317.213 M 724.500 446.134 C 723.400 446.724, 717.100 452.733, 710.500 459.487 C 703.900 466.241, 685.067 485.529, 668.649 502.348 C 632.681 539.196, 636.314 537.318, 624 525.421 C 592.011 494.514, 594.370 495.236, 578.734 511.577 C 562.600 528.438, 560.030 524.327, 625.500 586.362 C 634.622 595.006, 639.236 595.236, 646.500 587.408 C 648.150 585.630, 659.886 573.449, 672.580 560.338 C 685.274 547.227, 698.033 534.025, 700.934 531 C 703.835 527.975, 716.624 514.768, 729.354 501.652 C 760.640 469.417, 760.068 471.231, 743.742 456 C 731.716 444.781, 729.316 443.550, 724.500 446.134" stroke="none" fill="#ece3e9" fill-rule="evenodd"/><path d="M 695.512 317.213 C 694.419 317.847, 693.069 318.729, 692.512 319.174 C 691.955 319.618, 687.675 323.021, 683 326.735 C 678.325 330.450, 674.275 333.756, 674 334.083 C 663.497 346.563, 645.925 342.745, 629.500 324.414 C 617.706 311.252, 601.017 316.870, 596.570 335.500 C 590.895 359.275, 576.673 367.348, 553.664 359.854 C 527.643 351.379, 519.211 360.061, 522.931 391.500 C 525.068 409.567, 517.663 417.428, 495.078 421.065 C 465.923 425.760, 463.096 435.145, 480.997 467.802 C 489.142 482.661, 486.667 488.433, 464.207 506.955 C 445.246 522.591, 447.777 531.340, 477.715 553.650 C 490.389 563.095, 490.251 567.933, 476.462 597.500 C 473.326 604.225, 472.664 607.165, 472.894 613.340 C 473.097 618.767, 483.636 624.895, 496.452 627.037 C 525.175 631.839, 526.392 633.174, 527.387 661 C 528.505 692.254, 530.983 694.717, 555.237 688.689 C 589.546 680.161, 588.650 679.710, 605.824 714.125 C 614.702 731.915, 623.403 731.886, 642.943 714 C 661.957 696.595, 665.833 696.957, 694.311 718.792 C 710.098 730.897, 717.658 729.221, 724.960 712 C 733.853 691.029, 734.595 689.611, 738.907 685.360 C 742.095 682.217, 744.191 680.973, 746.415 680.903 C 752.846 680.701, 757.650 681.176, 762.026 682.446 C 794.859 691.974, 799.821 688.741, 800.315 657.500 C 800.735 631.023, 801.528 629.458, 817.272 624.045 C 821.797 622.489, 827.975 620.890, 831 620.491 C 854.334 617.415, 858.031 609.046, 846.341 585.765 C 832.969 559.132, 832.987 559.399, 843.857 548.566 C 847.301 545.133, 853.880 539.214, 858.476 535.412 C 876.481 520.520, 875.701 511.459, 855.236 497.728 C 832.359 482.379, 830.915 476.413, 843.733 450.224 C 854.244 428.747, 851.990 422.368, 832.500 418.445 C 796.795 411.259, 796.149 410.568, 795.049 378.457 C 794.129 351.590, 787.810 346.909, 763.993 355.449 C 741.065 363.669, 732.922 360.268, 721.572 337.731 C 711.406 317.544, 704.424 312.047, 695.512 317.213 M 724.500 446.134 C 723.400 446.724, 717.100 452.733, 710.500 459.487 C 703.900 466.241, 685.067 485.529, 668.649 502.348 C 632.681 539.196, 636.314 537.318, 624 525.421 C 592.011 494.514, 594.370 495.236, 578.734 511.577 C 562.600 528.438, 560.030 524.327, 625.500 586.362 C 634.622 595.006, 639.236 595.236, 646.500 587.408 C 648.150 585.630, 659.886 573.449, 672.580 560.338 C 685.274 547.227, 698.033 534.025, 700.934 531 C 703.835 527.975, 716.624 514.768, 729.354 501.652 C 760.640 469.417, 760.068 471.231, 743.742 456 C 731.716 444.781, 729.316 443.550, 724.500 446.134" stroke="none" fill="#a42f85" fill-rule="evenodd"/></svg>